<mxfile host="app.diagrams.net" modified="2024-02-11T16:23:00.252Z" agent="Mozilla/5.0 (Windows NT 10.0; Win64; x64) AppleWebKit/537.36 (KHTML, like Gecko) Chrome/121.0.0.0 Safari/537.36" etag="AcJ4DlB77sUJ5YPABGgs" version="23.1.1" type="device">
  <diagram name="Page-1" id="BYV4rxzvxnOeUvzsZQt4">
    <mxGraphModel dx="933" dy="485" grid="1" gridSize="10" guides="1" tooltips="1" connect="1" arrows="1" fold="1" page="1" pageScale="1" pageWidth="1100" pageHeight="850" math="0" shadow="0">
      <root>
        <mxCell id="0" />
        <mxCell id="1" parent="0" />
        <mxCell id="P7Aq6BEmMbNzqj5BhvWz-3" style="edgeStyle=orthogonalEdgeStyle;rounded=0;orthogonalLoop=1;jettySize=auto;html=1;" edge="1" parent="1" source="P7Aq6BEmMbNzqj5BhvWz-1" target="P7Aq6BEmMbNzqj5BhvWz-2">
          <mxGeometry relative="1" as="geometry" />
        </mxCell>
        <mxCell id="P7Aq6BEmMbNzqj5BhvWz-1" value="RDS" style="shape=cylinder3;whiteSpace=wrap;html=1;boundedLbl=1;backgroundOutline=1;size=15;" vertex="1" parent="1">
          <mxGeometry x="320" y="345" width="60" height="80" as="geometry" />
        </mxCell>
        <mxCell id="P7Aq6BEmMbNzqj5BhvWz-5" style="edgeStyle=orthogonalEdgeStyle;rounded=0;orthogonalLoop=1;jettySize=auto;html=1;" edge="1" parent="1" source="P7Aq6BEmMbNzqj5BhvWz-2" target="P7Aq6BEmMbNzqj5BhvWz-4">
          <mxGeometry relative="1" as="geometry" />
        </mxCell>
        <mxCell id="P7Aq6BEmMbNzqj5BhvWz-2" value="DMS" style="shape=process;whiteSpace=wrap;html=1;backgroundOutline=1;" vertex="1" parent="1">
          <mxGeometry x="480" y="355" width="120" height="60" as="geometry" />
        </mxCell>
        <mxCell id="P7Aq6BEmMbNzqj5BhvWz-4" value="Redshift" style="shape=cylinder3;whiteSpace=wrap;html=1;boundedLbl=1;backgroundOutline=1;size=15;" vertex="1" parent="1">
          <mxGeometry x="700" y="345" width="60" height="80" as="geometry" />
        </mxCell>
      </root>
    </mxGraphModel>
  </diagram>
</mxfile>
